<?xml version="1.0" encoding="utf-8" standalone="no"?>
<!DOCTYPE svg PUBLIC "-//W3C//DTD SVG 1.1//EN"
  "http://www.w3.org/Graphics/SVG/1.1/DTD/svg11.dtd">
<svg height="345.6pt" version="1.1" viewBox="0 0 460.8 345.6" width="460.8pt" xmlns="http://www.w3.org/2000/svg" xmlns:xlink="http://www.w3.org/1999/xlink">
 <metadata>
  <rdf:RDF xmlns:cc="http://creativecommons.org/ns#" xmlns:dc="http://purl.org/dc/elements/1.1/" xmlns:rdf="http://www.w3.org/1999/02/22-rdf-syntax-ns#">
   <cc:Work>
    <dc:type rdf:resource="http://purl.org/dc/dcmitype/StillImage"/>
    <dc:date>2022-01-17T19:59:07.453793</dc:date>
    <dc:format>image/svg+xml</dc:format>
    <dc:creator>
     <cc:Agent>
      <dc:title>Matplotlib v3.4.3, https://matplotlib.org/</dc:title>
     </cc:Agent>
    </dc:creator>
   </cc:Work>
  </rdf:RDF>
 </metadata>
 <defs>
  <style type="text/css">*{stroke-linecap:butt;stroke-linejoin:round;}</style>
 </defs>
 <g id="figure_1">
  <g id="patch_1">
   <path d="M 0 345.6 
L 460.8 345.6 
L 460.8 0 
L 0 0 
z
" style="fill:#ffffff;"/>
  </g>
  <g id="axes_1">
   <g id="patch_2">
    <path d="M 57.6 307.584 
L 414.72 307.584 
L 414.72 41.472 
L 57.6 41.472 
z
" style="fill:#ffffff;"/>
   </g>
   <g id="matplotlib.axis_1">
    <g id="xtick_1">
     <g id="line2d_1">
      <defs>
       <path d="M 0 0 
L 0 3.5 
" id="m9440fb5592" style="stroke:#000000;stroke-width:0.8;"/>
      </defs>
      <g>
       <use style="stroke:#000000;stroke-width:0.8;" x="73.832727" xlink:href="#m9440fb5592" y="307.584"/>
      </g>
     </g>
     <g id="text_1">
      <!-- 0 -->
      <g transform="translate(70.651477 322.182437)scale(0.1 -0.1)">
       <defs>
        <path d="M 2034 4250 
Q 1547 4250 1301 3770 
Q 1056 3291 1056 2328 
Q 1056 1369 1301 889 
Q 1547 409 2034 409 
Q 2525 409 2770 889 
Q 3016 1369 3016 2328 
Q 3016 3291 2770 3770 
Q 2525 4250 2034 4250 
z
M 2034 4750 
Q 2819 4750 3233 4129 
Q 3647 3509 3647 2328 
Q 3647 1150 3233 529 
Q 2819 -91 2034 -91 
Q 1250 -91 836 529 
Q 422 1150 422 2328 
Q 422 3509 836 4129 
Q 1250 4750 2034 4750 
z
" id="DejaVuSans-30" transform="scale(0.015625)"/>
       </defs>
       <use xlink:href="#DejaVuSans-30"/>
      </g>
     </g>
    </g>
    <g id="xtick_2">
     <g id="line2d_2">
      <g>
       <use style="stroke:#000000;stroke-width:0.8;" x="151.131429" xlink:href="#m9440fb5592" y="307.584"/>
      </g>
     </g>
     <g id="text_2">
      <!-- 10 -->
      <g transform="translate(144.768929 322.182437)scale(0.1 -0.1)">
       <defs>
        <path d="M 794 531 
L 1825 531 
L 1825 4091 
L 703 3866 
L 703 4441 
L 1819 4666 
L 2450 4666 
L 2450 531 
L 3481 531 
L 3481 0 
L 794 0 
L 794 531 
z
" id="DejaVuSans-31" transform="scale(0.015625)"/>
       </defs>
       <use xlink:href="#DejaVuSans-31"/>
       <use x="63.623047" xlink:href="#DejaVuSans-30"/>
      </g>
     </g>
    </g>
    <g id="xtick_3">
     <g id="line2d_3">
      <g>
       <use style="stroke:#000000;stroke-width:0.8;" x="228.43013" xlink:href="#m9440fb5592" y="307.584"/>
      </g>
     </g>
     <g id="text_3">
      <!-- 20 -->
      <g transform="translate(222.06763 322.182437)scale(0.1 -0.1)">
       <defs>
        <path d="M 1228 531 
L 3431 531 
L 3431 0 
L 469 0 
L 469 531 
Q 828 903 1448 1529 
Q 2069 2156 2228 2338 
Q 2531 2678 2651 2914 
Q 2772 3150 2772 3378 
Q 2772 3750 2511 3984 
Q 2250 4219 1831 4219 
Q 1534 4219 1204 4116 
Q 875 4013 500 3803 
L 500 4441 
Q 881 4594 1212 4672 
Q 1544 4750 1819 4750 
Q 2544 4750 2975 4387 
Q 3406 4025 3406 3419 
Q 3406 3131 3298 2873 
Q 3191 2616 2906 2266 
Q 2828 2175 2409 1742 
Q 1991 1309 1228 531 
z
" id="DejaVuSans-32" transform="scale(0.015625)"/>
       </defs>
       <use xlink:href="#DejaVuSans-32"/>
       <use x="63.623047" xlink:href="#DejaVuSans-30"/>
      </g>
     </g>
    </g>
    <g id="xtick_4">
     <g id="line2d_4">
      <g>
       <use style="stroke:#000000;stroke-width:0.8;" x="305.728831" xlink:href="#m9440fb5592" y="307.584"/>
      </g>
     </g>
     <g id="text_4">
      <!-- 30 -->
      <g transform="translate(299.366331 322.182437)scale(0.1 -0.1)">
       <defs>
        <path d="M 2597 2516 
Q 3050 2419 3304 2112 
Q 3559 1806 3559 1356 
Q 3559 666 3084 287 
Q 2609 -91 1734 -91 
Q 1441 -91 1130 -33 
Q 819 25 488 141 
L 488 750 
Q 750 597 1062 519 
Q 1375 441 1716 441 
Q 2309 441 2620 675 
Q 2931 909 2931 1356 
Q 2931 1769 2642 2001 
Q 2353 2234 1838 2234 
L 1294 2234 
L 1294 2753 
L 1863 2753 
Q 2328 2753 2575 2939 
Q 2822 3125 2822 3475 
Q 2822 3834 2567 4026 
Q 2313 4219 1838 4219 
Q 1578 4219 1281 4162 
Q 984 4106 628 3988 
L 628 4550 
Q 988 4650 1302 4700 
Q 1616 4750 1894 4750 
Q 2613 4750 3031 4423 
Q 3450 4097 3450 3541 
Q 3450 3153 3228 2886 
Q 3006 2619 2597 2516 
z
" id="DejaVuSans-33" transform="scale(0.015625)"/>
       </defs>
       <use xlink:href="#DejaVuSans-33"/>
       <use x="63.623047" xlink:href="#DejaVuSans-30"/>
      </g>
     </g>
    </g>
    <g id="xtick_5">
     <g id="line2d_5">
      <g>
       <use style="stroke:#000000;stroke-width:0.8;" x="383.027532" xlink:href="#m9440fb5592" y="307.584"/>
      </g>
     </g>
     <g id="text_5">
      <!-- 40 -->
      <g transform="translate(376.665032 322.182437)scale(0.1 -0.1)">
       <defs>
        <path d="M 2419 4116 
L 825 1625 
L 2419 1625 
L 2419 4116 
z
M 2253 4666 
L 3047 4666 
L 3047 1625 
L 3713 1625 
L 3713 1100 
L 3047 1100 
L 3047 0 
L 2419 0 
L 2419 1100 
L 313 1100 
L 313 1709 
L 2253 4666 
z
" id="DejaVuSans-34" transform="scale(0.015625)"/>
       </defs>
       <use xlink:href="#DejaVuSans-34"/>
       <use x="63.623047" xlink:href="#DejaVuSans-30"/>
      </g>
     </g>
    </g>
    <g id="text_6">
     <!-- numer iteracji -->
     <g transform="translate(201.158437 335.860562)scale(0.1 -0.1)">
      <defs>
       <path d="M 3513 2113 
L 3513 0 
L 2938 0 
L 2938 2094 
Q 2938 2591 2744 2837 
Q 2550 3084 2163 3084 
Q 1697 3084 1428 2787 
Q 1159 2491 1159 1978 
L 1159 0 
L 581 0 
L 581 3500 
L 1159 3500 
L 1159 2956 
Q 1366 3272 1645 3428 
Q 1925 3584 2291 3584 
Q 2894 3584 3203 3211 
Q 3513 2838 3513 2113 
z
" id="DejaVuSans-6e" transform="scale(0.015625)"/>
       <path d="M 544 1381 
L 544 3500 
L 1119 3500 
L 1119 1403 
Q 1119 906 1312 657 
Q 1506 409 1894 409 
Q 2359 409 2629 706 
Q 2900 1003 2900 1516 
L 2900 3500 
L 3475 3500 
L 3475 0 
L 2900 0 
L 2900 538 
Q 2691 219 2414 64 
Q 2138 -91 1772 -91 
Q 1169 -91 856 284 
Q 544 659 544 1381 
z
M 1991 3584 
L 1991 3584 
z
" id="DejaVuSans-75" transform="scale(0.015625)"/>
       <path d="M 3328 2828 
Q 3544 3216 3844 3400 
Q 4144 3584 4550 3584 
Q 5097 3584 5394 3201 
Q 5691 2819 5691 2113 
L 5691 0 
L 5113 0 
L 5113 2094 
Q 5113 2597 4934 2840 
Q 4756 3084 4391 3084 
Q 3944 3084 3684 2787 
Q 3425 2491 3425 1978 
L 3425 0 
L 2847 0 
L 2847 2094 
Q 2847 2600 2669 2842 
Q 2491 3084 2119 3084 
Q 1678 3084 1418 2786 
Q 1159 2488 1159 1978 
L 1159 0 
L 581 0 
L 581 3500 
L 1159 3500 
L 1159 2956 
Q 1356 3278 1631 3431 
Q 1906 3584 2284 3584 
Q 2666 3584 2933 3390 
Q 3200 3197 3328 2828 
z
" id="DejaVuSans-6d" transform="scale(0.015625)"/>
       <path d="M 3597 1894 
L 3597 1613 
L 953 1613 
Q 991 1019 1311 708 
Q 1631 397 2203 397 
Q 2534 397 2845 478 
Q 3156 559 3463 722 
L 3463 178 
Q 3153 47 2828 -22 
Q 2503 -91 2169 -91 
Q 1331 -91 842 396 
Q 353 884 353 1716 
Q 353 2575 817 3079 
Q 1281 3584 2069 3584 
Q 2775 3584 3186 3129 
Q 3597 2675 3597 1894 
z
M 3022 2063 
Q 3016 2534 2758 2815 
Q 2500 3097 2075 3097 
Q 1594 3097 1305 2825 
Q 1016 2553 972 2059 
L 3022 2063 
z
" id="DejaVuSans-65" transform="scale(0.015625)"/>
       <path d="M 2631 2963 
Q 2534 3019 2420 3045 
Q 2306 3072 2169 3072 
Q 1681 3072 1420 2755 
Q 1159 2438 1159 1844 
L 1159 0 
L 581 0 
L 581 3500 
L 1159 3500 
L 1159 2956 
Q 1341 3275 1631 3429 
Q 1922 3584 2338 3584 
Q 2397 3584 2469 3576 
Q 2541 3569 2628 3553 
L 2631 2963 
z
" id="DejaVuSans-72" transform="scale(0.015625)"/>
       <path id="DejaVuSans-20" transform="scale(0.015625)"/>
       <path d="M 603 3500 
L 1178 3500 
L 1178 0 
L 603 0 
L 603 3500 
z
M 603 4863 
L 1178 4863 
L 1178 4134 
L 603 4134 
L 603 4863 
z
" id="DejaVuSans-69" transform="scale(0.015625)"/>
       <path d="M 1172 4494 
L 1172 3500 
L 2356 3500 
L 2356 3053 
L 1172 3053 
L 1172 1153 
Q 1172 725 1289 603 
Q 1406 481 1766 481 
L 2356 481 
L 2356 0 
L 1766 0 
Q 1100 0 847 248 
Q 594 497 594 1153 
L 594 3053 
L 172 3053 
L 172 3500 
L 594 3500 
L 594 4494 
L 1172 4494 
z
" id="DejaVuSans-74" transform="scale(0.015625)"/>
       <path d="M 2194 1759 
Q 1497 1759 1228 1600 
Q 959 1441 959 1056 
Q 959 750 1161 570 
Q 1363 391 1709 391 
Q 2188 391 2477 730 
Q 2766 1069 2766 1631 
L 2766 1759 
L 2194 1759 
z
M 3341 1997 
L 3341 0 
L 2766 0 
L 2766 531 
Q 2569 213 2275 61 
Q 1981 -91 1556 -91 
Q 1019 -91 701 211 
Q 384 513 384 1019 
Q 384 1609 779 1909 
Q 1175 2209 1959 2209 
L 2766 2209 
L 2766 2266 
Q 2766 2663 2505 2880 
Q 2244 3097 1772 3097 
Q 1472 3097 1187 3025 
Q 903 2953 641 2809 
L 641 3341 
Q 956 3463 1253 3523 
Q 1550 3584 1831 3584 
Q 2591 3584 2966 3190 
Q 3341 2797 3341 1997 
z
" id="DejaVuSans-61" transform="scale(0.015625)"/>
       <path d="M 3122 3366 
L 3122 2828 
Q 2878 2963 2633 3030 
Q 2388 3097 2138 3097 
Q 1578 3097 1268 2742 
Q 959 2388 959 1747 
Q 959 1106 1268 751 
Q 1578 397 2138 397 
Q 2388 397 2633 464 
Q 2878 531 3122 666 
L 3122 134 
Q 2881 22 2623 -34 
Q 2366 -91 2075 -91 
Q 1284 -91 818 406 
Q 353 903 353 1747 
Q 353 2603 823 3093 
Q 1294 3584 2113 3584 
Q 2378 3584 2631 3529 
Q 2884 3475 3122 3366 
z
" id="DejaVuSans-63" transform="scale(0.015625)"/>
       <path d="M 603 3500 
L 1178 3500 
L 1178 -63 
Q 1178 -731 923 -1031 
Q 669 -1331 103 -1331 
L -116 -1331 
L -116 -844 
L 38 -844 
Q 366 -844 484 -692 
Q 603 -541 603 -63 
L 603 3500 
z
M 603 4863 
L 1178 4863 
L 1178 4134 
L 603 4134 
L 603 4863 
z
" id="DejaVuSans-6a" transform="scale(0.015625)"/>
      </defs>
      <use xlink:href="#DejaVuSans-6e"/>
      <use x="63.378906" xlink:href="#DejaVuSans-75"/>
      <use x="126.757812" xlink:href="#DejaVuSans-6d"/>
      <use x="224.169922" xlink:href="#DejaVuSans-65"/>
      <use x="285.693359" xlink:href="#DejaVuSans-72"/>
      <use x="326.806641" xlink:href="#DejaVuSans-20"/>
      <use x="358.59375" xlink:href="#DejaVuSans-69"/>
      <use x="386.376953" xlink:href="#DejaVuSans-74"/>
      <use x="425.585938" xlink:href="#DejaVuSans-65"/>
      <use x="487.109375" xlink:href="#DejaVuSans-72"/>
      <use x="528.222656" xlink:href="#DejaVuSans-61"/>
      <use x="589.501953" xlink:href="#DejaVuSans-63"/>
      <use x="644.482422" xlink:href="#DejaVuSans-6a"/>
      <use x="672.265625" xlink:href="#DejaVuSans-69"/>
     </g>
    </g>
   </g>
   <g id="matplotlib.axis_2">
    <g id="ytick_1">
     <g id="line2d_6">
      <defs>
       <path d="M 0 0 
L -3.5 0 
" id="mf7d59cc16b" style="stroke:#000000;stroke-width:0.8;"/>
      </defs>
      <g>
       <use style="stroke:#000000;stroke-width:0.8;" x="57.6" xlink:href="#mf7d59cc16b" y="270.411529"/>
      </g>
     </g>
     <g id="text_7">
      <!-- $\mathdefault{10^{-7}}$ -->
      <g transform="translate(27.1 274.210748)scale(0.1 -0.1)">
       <defs>
        <path d="M 678 2272 
L 4684 2272 
L 4684 1741 
L 678 1741 
L 678 2272 
z
" id="DejaVuSans-2212" transform="scale(0.015625)"/>
        <path d="M 525 4666 
L 3525 4666 
L 3525 4397 
L 1831 0 
L 1172 0 
L 2766 4134 
L 525 4134 
L 525 4666 
z
" id="DejaVuSans-37" transform="scale(0.015625)"/>
       </defs>
       <use transform="translate(0 0.684375)" xlink:href="#DejaVuSans-31"/>
       <use transform="translate(63.623047 0.684375)" xlink:href="#DejaVuSans-30"/>
       <use transform="translate(128.203125 38.965625)scale(0.7)" xlink:href="#DejaVuSans-2212"/>
       <use transform="translate(186.855469 38.965625)scale(0.7)" xlink:href="#DejaVuSans-37"/>
      </g>
     </g>
    </g>
    <g id="ytick_2">
     <g id="line2d_7">
      <g>
       <use style="stroke:#000000;stroke-width:0.8;" x="57.6" xlink:href="#mf7d59cc16b" y="215.38515"/>
      </g>
     </g>
     <g id="text_8">
      <!-- $\mathdefault{10^{-5}}$ -->
      <g transform="translate(27.1 219.184369)scale(0.1 -0.1)">
       <defs>
        <path d="M 691 4666 
L 3169 4666 
L 3169 4134 
L 1269 4134 
L 1269 2991 
Q 1406 3038 1543 3061 
Q 1681 3084 1819 3084 
Q 2600 3084 3056 2656 
Q 3513 2228 3513 1497 
Q 3513 744 3044 326 
Q 2575 -91 1722 -91 
Q 1428 -91 1123 -41 
Q 819 9 494 109 
L 494 744 
Q 775 591 1075 516 
Q 1375 441 1709 441 
Q 2250 441 2565 725 
Q 2881 1009 2881 1497 
Q 2881 1984 2565 2268 
Q 2250 2553 1709 2553 
Q 1456 2553 1204 2497 
Q 953 2441 691 2322 
L 691 4666 
z
" id="DejaVuSans-35" transform="scale(0.015625)"/>
       </defs>
       <use transform="translate(0 0.684375)" xlink:href="#DejaVuSans-31"/>
       <use transform="translate(63.623047 0.684375)" xlink:href="#DejaVuSans-30"/>
       <use transform="translate(128.203125 38.965625)scale(0.7)" xlink:href="#DejaVuSans-2212"/>
       <use transform="translate(186.855469 38.965625)scale(0.7)" xlink:href="#DejaVuSans-35"/>
      </g>
     </g>
    </g>
    <g id="ytick_3">
     <g id="line2d_8">
      <g>
       <use style="stroke:#000000;stroke-width:0.8;" x="57.6" xlink:href="#mf7d59cc16b" y="160.358771"/>
      </g>
     </g>
     <g id="text_9">
      <!-- $\mathdefault{10^{-3}}$ -->
      <g transform="translate(27.1 164.157989)scale(0.1 -0.1)">
       <use transform="translate(0 0.765625)" xlink:href="#DejaVuSans-31"/>
       <use transform="translate(63.623047 0.765625)" xlink:href="#DejaVuSans-30"/>
       <use transform="translate(128.203125 39.046875)scale(0.7)" xlink:href="#DejaVuSans-2212"/>
       <use transform="translate(186.855469 39.046875)scale(0.7)" xlink:href="#DejaVuSans-33"/>
      </g>
     </g>
    </g>
    <g id="ytick_4">
     <g id="line2d_9">
      <g>
       <use style="stroke:#000000;stroke-width:0.8;" x="57.6" xlink:href="#mf7d59cc16b" y="105.332391"/>
      </g>
     </g>
     <g id="text_10">
      <!-- $\mathdefault{10^{-1}}$ -->
      <g transform="translate(27.1 109.13161)scale(0.1 -0.1)">
       <use transform="translate(0 0.684375)" xlink:href="#DejaVuSans-31"/>
       <use transform="translate(63.623047 0.684375)" xlink:href="#DejaVuSans-30"/>
       <use transform="translate(128.203125 38.965625)scale(0.7)" xlink:href="#DejaVuSans-2212"/>
       <use transform="translate(186.855469 38.965625)scale(0.7)" xlink:href="#DejaVuSans-31"/>
      </g>
     </g>
    </g>
    <g id="ytick_5">
     <g id="line2d_10">
      <g>
       <use style="stroke:#000000;stroke-width:0.8;" x="57.6" xlink:href="#mf7d59cc16b" y="50.306012"/>
      </g>
     </g>
     <g id="text_11">
      <!-- $\mathdefault{10^{1}}$ -->
      <g transform="translate(33 54.105231)scale(0.1 -0.1)">
       <use transform="translate(0 0.684375)" xlink:href="#DejaVuSans-31"/>
       <use transform="translate(63.623047 0.684375)" xlink:href="#DejaVuSans-30"/>
       <use transform="translate(128.203125 38.965625)scale(0.7)" xlink:href="#DejaVuSans-31"/>
      </g>
     </g>
    </g>
    <g id="text_12">
     <!-- |x* - xi| -->
     <g transform="translate(20.742188 192.686594)rotate(-90)scale(0.1 -0.1)">
      <defs>
       <path d="M 1344 4891 
L 1344 -1509 
L 813 -1509 
L 813 4891 
L 1344 4891 
z
" id="DejaVuSans-7c" transform="scale(0.015625)"/>
       <path d="M 3513 3500 
L 2247 1797 
L 3578 0 
L 2900 0 
L 1881 1375 
L 863 0 
L 184 0 
L 1544 1831 
L 300 3500 
L 978 3500 
L 1906 2253 
L 2834 3500 
L 3513 3500 
z
" id="DejaVuSans-78" transform="scale(0.015625)"/>
       <path d="M 3009 3897 
L 1888 3291 
L 3009 2681 
L 2828 2375 
L 1778 3009 
L 1778 1831 
L 1422 1831 
L 1422 3009 
L 372 2375 
L 191 2681 
L 1313 3291 
L 191 3897 
L 372 4206 
L 1422 3572 
L 1422 4750 
L 1778 4750 
L 1778 3572 
L 2828 4206 
L 3009 3897 
z
" id="DejaVuSans-2a" transform="scale(0.015625)"/>
       <path d="M 313 2009 
L 1997 2009 
L 1997 1497 
L 313 1497 
L 313 2009 
z
" id="DejaVuSans-2d" transform="scale(0.015625)"/>
      </defs>
      <use xlink:href="#DejaVuSans-7c"/>
      <use x="33.691406" xlink:href="#DejaVuSans-78"/>
      <use x="92.871094" xlink:href="#DejaVuSans-2a"/>
      <use x="142.871094" xlink:href="#DejaVuSans-20"/>
      <use x="174.658203" xlink:href="#DejaVuSans-2d"/>
      <use x="210.742188" xlink:href="#DejaVuSans-20"/>
      <use x="242.529297" xlink:href="#DejaVuSans-78"/>
      <use x="301.708984" xlink:href="#DejaVuSans-69"/>
      <use x="329.492188" xlink:href="#DejaVuSans-7c"/>
     </g>
    </g>
   </g>
   <g id="line2d_11">
    <path clip-path="url(#p4afd1699d9)" d="M 73.832727 69.6429 
L 81.751131 78.170413 
L 89.669534 71.5538 
L 97.587938 63.163871 
L 105.506341 77.333603 
L 113.424745 84.570606 
L 121.343149 53.568 
L 129.261552 73.378259 
L 137.179956 59.726396 
L 145.098359 82.170685 
L 153.016763 112.726441 
L 160.935166 114.165973 
L 168.85357 121.884398 
L 176.771973 127.004667 
L 184.690377 133.048145 
L 192.60878 138.716806 
L 200.527184 144.516085 
L 208.445588 150.258383 
L 216.363991 156.018102 
L 224.282395 161.768523 
L 232.200798 167.520868 
L 240.119202 173.271475 
L 248.037605 179.022127 
L 255.956009 184.77238 
L 263.874412 190.522549 
L 271.792816 196.272605 
L 279.71122 202.022614 
L 287.629623 207.772585 
L 295.548027 213.522536 
L 303.46643 219.272474 
L 311.384834 225.022404 
L 319.303237 230.772329 
L 327.221641 236.52225 
L 335.140044 242.27217 
L 343.058448 248.022088 
L 350.976851 253.772006 
L 358.895255 259.521923 
L 366.813659 265.27184 
L 374.732062 271.021757 
L 382.650466 276.771674 
L 390.568869 282.521591 
L 398.487273 288.271507 
" style="fill:none;stroke:#1f77b4;stroke-linecap:square;stroke-width:1.5;"/>
    <defs>
     <path d="M 0 3 
C 0.795609 3 1.55874 2.683901 2.12132 2.12132 
C 2.683901 1.55874 3 0.795609 3 0 
C 3 -0.795609 2.683901 -1.55874 2.12132 -2.12132 
C 1.55874 -2.683901 0.795609 -3 0 -3 
C -0.795609 -3 -1.55874 -2.683901 -2.12132 -2.12132 
C -2.683901 -1.55874 -3 -0.795609 -3 0 
C -3 0.795609 -2.683901 1.55874 -2.12132 2.12132 
C -1.55874 2.683901 -0.795609 3 0 3 
z
" id="mf0650fac27" style="stroke:#1f77b4;"/>
    </defs>
    <g clip-path="url(#p4afd1699d9)">
     <use style="fill:#1f77b4;stroke:#1f77b4;" x="73.832727" xlink:href="#mf0650fac27" y="69.6429"/>
     <use style="fill:#1f77b4;stroke:#1f77b4;" x="81.751131" xlink:href="#mf0650fac27" y="78.170413"/>
     <use style="fill:#1f77b4;stroke:#1f77b4;" x="89.669534" xlink:href="#mf0650fac27" y="71.5538"/>
     <use style="fill:#1f77b4;stroke:#1f77b4;" x="97.587938" xlink:href="#mf0650fac27" y="63.163871"/>
     <use style="fill:#1f77b4;stroke:#1f77b4;" x="105.506341" xlink:href="#mf0650fac27" y="77.333603"/>
     <use style="fill:#1f77b4;stroke:#1f77b4;" x="113.424745" xlink:href="#mf0650fac27" y="84.570606"/>
     <use style="fill:#1f77b4;stroke:#1f77b4;" x="121.343149" xlink:href="#mf0650fac27" y="53.568"/>
     <use style="fill:#1f77b4;stroke:#1f77b4;" x="129.261552" xlink:href="#mf0650fac27" y="73.378259"/>
     <use style="fill:#1f77b4;stroke:#1f77b4;" x="137.179956" xlink:href="#mf0650fac27" y="59.726396"/>
     <use style="fill:#1f77b4;stroke:#1f77b4;" x="145.098359" xlink:href="#mf0650fac27" y="82.170685"/>
     <use style="fill:#1f77b4;stroke:#1f77b4;" x="153.016763" xlink:href="#mf0650fac27" y="112.726441"/>
     <use style="fill:#1f77b4;stroke:#1f77b4;" x="160.935166" xlink:href="#mf0650fac27" y="114.165973"/>
     <use style="fill:#1f77b4;stroke:#1f77b4;" x="168.85357" xlink:href="#mf0650fac27" y="121.884398"/>
     <use style="fill:#1f77b4;stroke:#1f77b4;" x="176.771973" xlink:href="#mf0650fac27" y="127.004667"/>
     <use style="fill:#1f77b4;stroke:#1f77b4;" x="184.690377" xlink:href="#mf0650fac27" y="133.048145"/>
     <use style="fill:#1f77b4;stroke:#1f77b4;" x="192.60878" xlink:href="#mf0650fac27" y="138.716806"/>
     <use style="fill:#1f77b4;stroke:#1f77b4;" x="200.527184" xlink:href="#mf0650fac27" y="144.516085"/>
     <use style="fill:#1f77b4;stroke:#1f77b4;" x="208.445588" xlink:href="#mf0650fac27" y="150.258383"/>
     <use style="fill:#1f77b4;stroke:#1f77b4;" x="216.363991" xlink:href="#mf0650fac27" y="156.018102"/>
     <use style="fill:#1f77b4;stroke:#1f77b4;" x="224.282395" xlink:href="#mf0650fac27" y="161.768523"/>
     <use style="fill:#1f77b4;stroke:#1f77b4;" x="232.200798" xlink:href="#mf0650fac27" y="167.520868"/>
     <use style="fill:#1f77b4;stroke:#1f77b4;" x="240.119202" xlink:href="#mf0650fac27" y="173.271475"/>
     <use style="fill:#1f77b4;stroke:#1f77b4;" x="248.037605" xlink:href="#mf0650fac27" y="179.022127"/>
     <use style="fill:#1f77b4;stroke:#1f77b4;" x="255.956009" xlink:href="#mf0650fac27" y="184.77238"/>
     <use style="fill:#1f77b4;stroke:#1f77b4;" x="263.874412" xlink:href="#mf0650fac27" y="190.522549"/>
     <use style="fill:#1f77b4;stroke:#1f77b4;" x="271.792816" xlink:href="#mf0650fac27" y="196.272605"/>
     <use style="fill:#1f77b4;stroke:#1f77b4;" x="279.71122" xlink:href="#mf0650fac27" y="202.022614"/>
     <use style="fill:#1f77b4;stroke:#1f77b4;" x="287.629623" xlink:href="#mf0650fac27" y="207.772585"/>
     <use style="fill:#1f77b4;stroke:#1f77b4;" x="295.548027" xlink:href="#mf0650fac27" y="213.522536"/>
     <use style="fill:#1f77b4;stroke:#1f77b4;" x="303.46643" xlink:href="#mf0650fac27" y="219.272474"/>
     <use style="fill:#1f77b4;stroke:#1f77b4;" x="311.384834" xlink:href="#mf0650fac27" y="225.022404"/>
     <use style="fill:#1f77b4;stroke:#1f77b4;" x="319.303237" xlink:href="#mf0650fac27" y="230.772329"/>
     <use style="fill:#1f77b4;stroke:#1f77b4;" x="327.221641" xlink:href="#mf0650fac27" y="236.52225"/>
     <use style="fill:#1f77b4;stroke:#1f77b4;" x="335.140044" xlink:href="#mf0650fac27" y="242.27217"/>
     <use style="fill:#1f77b4;stroke:#1f77b4;" x="343.058448" xlink:href="#mf0650fac27" y="248.022088"/>
     <use style="fill:#1f77b4;stroke:#1f77b4;" x="350.976851" xlink:href="#mf0650fac27" y="253.772006"/>
     <use style="fill:#1f77b4;stroke:#1f77b4;" x="358.895255" xlink:href="#mf0650fac27" y="259.521923"/>
     <use style="fill:#1f77b4;stroke:#1f77b4;" x="366.813659" xlink:href="#mf0650fac27" y="265.27184"/>
     <use style="fill:#1f77b4;stroke:#1f77b4;" x="374.732062" xlink:href="#mf0650fac27" y="271.021757"/>
     <use style="fill:#1f77b4;stroke:#1f77b4;" x="382.650466" xlink:href="#mf0650fac27" y="276.771674"/>
     <use style="fill:#1f77b4;stroke:#1f77b4;" x="390.568869" xlink:href="#mf0650fac27" y="282.521591"/>
     <use style="fill:#1f77b4;stroke:#1f77b4;" x="398.487273" xlink:href="#mf0650fac27" y="288.271507"/>
    </g>
   </g>
   <g id="line2d_12">
    <path clip-path="url(#p4afd1699d9)" d="M 73.832727 97.413492 
L 81.884675 105.408226 
L 89.936623 113.502023 
L 97.988571 121.676956 
L 106.040519 129.901955 
L 114.092468 138.154648 
L 122.144416 146.421896 
L 130.196364 154.696606 
L 138.248312 162.975093 
L 146.30026 171.25548 
L 154.352208 179.536821 
L 162.404156 187.818638 
L 170.456104 196.100695 
L 178.508052 204.382871 
L 186.56 212.665106 
L 194.611948 220.947372 
L 202.663896 229.229652 
L 210.715844 237.51194 
L 218.767792 245.794232 
L 226.81974 254.076525 
L 234.871688 262.358819 
L 242.923636 270.641114 
L 250.975584 278.923409 
L 259.027532 287.205705 
L 267.079481 295.488 
" style="fill:none;stroke:#ff7f0e;stroke-linecap:square;stroke-width:1.5;"/>
    <defs>
     <path d="M 0 3 
C 0.795609 3 1.55874 2.683901 2.12132 2.12132 
C 2.683901 1.55874 3 0.795609 3 0 
C 3 -0.795609 2.683901 -1.55874 2.12132 -2.12132 
C 1.55874 -2.683901 0.795609 -3 0 -3 
C -0.795609 -3 -1.55874 -2.683901 -2.12132 -2.12132 
C -2.683901 -1.55874 -3 -0.795609 -3 0 
C -3 0.795609 -2.683901 1.55874 -2.12132 2.12132 
C -1.55874 2.683901 -0.795609 3 0 3 
z
" id="m6a71b8d5e8" style="stroke:#ff7f0e;"/>
    </defs>
    <g clip-path="url(#p4afd1699d9)">
     <use style="fill:#ff7f0e;stroke:#ff7f0e;" x="73.832727" xlink:href="#m6a71b8d5e8" y="97.413492"/>
     <use style="fill:#ff7f0e;stroke:#ff7f0e;" x="81.884675" xlink:href="#m6a71b8d5e8" y="105.408226"/>
     <use style="fill:#ff7f0e;stroke:#ff7f0e;" x="89.936623" xlink:href="#m6a71b8d5e8" y="113.502023"/>
     <use style="fill:#ff7f0e;stroke:#ff7f0e;" x="97.988571" xlink:href="#m6a71b8d5e8" y="121.676956"/>
     <use style="fill:#ff7f0e;stroke:#ff7f0e;" x="106.040519" xlink:href="#m6a71b8d5e8" y="129.901955"/>
     <use style="fill:#ff7f0e;stroke:#ff7f0e;" x="114.092468" xlink:href="#m6a71b8d5e8" y="138.154648"/>
     <use style="fill:#ff7f0e;stroke:#ff7f0e;" x="122.144416" xlink:href="#m6a71b8d5e8" y="146.421896"/>
     <use style="fill:#ff7f0e;stroke:#ff7f0e;" x="130.196364" xlink:href="#m6a71b8d5e8" y="154.696606"/>
     <use style="fill:#ff7f0e;stroke:#ff7f0e;" x="138.248312" xlink:href="#m6a71b8d5e8" y="162.975093"/>
     <use style="fill:#ff7f0e;stroke:#ff7f0e;" x="146.30026" xlink:href="#m6a71b8d5e8" y="171.25548"/>
     <use style="fill:#ff7f0e;stroke:#ff7f0e;" x="154.352208" xlink:href="#m6a71b8d5e8" y="179.536821"/>
     <use style="fill:#ff7f0e;stroke:#ff7f0e;" x="162.404156" xlink:href="#m6a71b8d5e8" y="187.818638"/>
     <use style="fill:#ff7f0e;stroke:#ff7f0e;" x="170.456104" xlink:href="#m6a71b8d5e8" y="196.100695"/>
     <use style="fill:#ff7f0e;stroke:#ff7f0e;" x="178.508052" xlink:href="#m6a71b8d5e8" y="204.382871"/>
     <use style="fill:#ff7f0e;stroke:#ff7f0e;" x="186.56" xlink:href="#m6a71b8d5e8" y="212.665106"/>
     <use style="fill:#ff7f0e;stroke:#ff7f0e;" x="194.611948" xlink:href="#m6a71b8d5e8" y="220.947372"/>
     <use style="fill:#ff7f0e;stroke:#ff7f0e;" x="202.663896" xlink:href="#m6a71b8d5e8" y="229.229652"/>
     <use style="fill:#ff7f0e;stroke:#ff7f0e;" x="210.715844" xlink:href="#m6a71b8d5e8" y="237.51194"/>
     <use style="fill:#ff7f0e;stroke:#ff7f0e;" x="218.767792" xlink:href="#m6a71b8d5e8" y="245.794232"/>
     <use style="fill:#ff7f0e;stroke:#ff7f0e;" x="226.81974" xlink:href="#m6a71b8d5e8" y="254.076525"/>
     <use style="fill:#ff7f0e;stroke:#ff7f0e;" x="234.871688" xlink:href="#m6a71b8d5e8" y="262.358819"/>
     <use style="fill:#ff7f0e;stroke:#ff7f0e;" x="242.923636" xlink:href="#m6a71b8d5e8" y="270.641114"/>
     <use style="fill:#ff7f0e;stroke:#ff7f0e;" x="250.975584" xlink:href="#m6a71b8d5e8" y="278.923409"/>
     <use style="fill:#ff7f0e;stroke:#ff7f0e;" x="259.027532" xlink:href="#m6a71b8d5e8" y="287.205705"/>
     <use style="fill:#ff7f0e;stroke:#ff7f0e;" x="267.079481" xlink:href="#m6a71b8d5e8" y="295.488"/>
    </g>
   </g>
   <g id="patch_3">
    <path d="M 57.6 307.584 
L 57.6 41.472 
" style="fill:none;stroke:#000000;stroke-linecap:square;stroke-linejoin:miter;stroke-width:0.8;"/>
   </g>
   <g id="patch_4">
    <path d="M 414.72 307.584 
L 414.72 41.472 
" style="fill:none;stroke:#000000;stroke-linecap:square;stroke-linejoin:miter;stroke-width:0.8;"/>
   </g>
   <g id="patch_5">
    <path d="M 57.6 307.584 
L 414.72 307.584 
" style="fill:none;stroke:#000000;stroke-linecap:square;stroke-linejoin:miter;stroke-width:0.8;"/>
   </g>
   <g id="patch_6">
    <path d="M 57.6 41.472 
L 414.72 41.472 
" style="fill:none;stroke:#000000;stroke-linecap:square;stroke-linejoin:miter;stroke-width:0.8;"/>
   </g>
   <g id="text_13">
    <!-- Porównanie metod szukania miejsca zerowego -->
    <g transform="translate(96.377813 22.034625)scale(0.12 -0.12)">
     <defs>
      <path d="M 1259 4147 
L 1259 2394 
L 2053 2394 
Q 2494 2394 2734 2622 
Q 2975 2850 2975 3272 
Q 2975 3691 2734 3919 
Q 2494 4147 2053 4147 
L 1259 4147 
z
M 628 4666 
L 2053 4666 
Q 2838 4666 3239 4311 
Q 3641 3956 3641 3272 
Q 3641 2581 3239 2228 
Q 2838 1875 2053 1875 
L 1259 1875 
L 1259 0 
L 628 0 
L 628 4666 
z
" id="DejaVuSans-50" transform="scale(0.015625)"/>
      <path d="M 1959 3097 
Q 1497 3097 1228 2736 
Q 959 2375 959 1747 
Q 959 1119 1226 758 
Q 1494 397 1959 397 
Q 2419 397 2687 759 
Q 2956 1122 2956 1747 
Q 2956 2369 2687 2733 
Q 2419 3097 1959 3097 
z
M 1959 3584 
Q 2709 3584 3137 3096 
Q 3566 2609 3566 1747 
Q 3566 888 3137 398 
Q 2709 -91 1959 -91 
Q 1206 -91 779 398 
Q 353 888 353 1747 
Q 353 2609 779 3096 
Q 1206 3584 1959 3584 
z
" id="DejaVuSans-6f" transform="scale(0.015625)"/>
      <path d="M 1959 3097 
Q 1497 3097 1228 2736 
Q 959 2375 959 1747 
Q 959 1119 1226 758 
Q 1494 397 1959 397 
Q 2419 397 2687 759 
Q 2956 1122 2956 1747 
Q 2956 2369 2687 2733 
Q 2419 3097 1959 3097 
z
M 1959 3584 
Q 2709 3584 3137 3096 
Q 3566 2609 3566 1747 
Q 3566 888 3137 398 
Q 2709 -91 1959 -91 
Q 1206 -91 779 398 
Q 353 888 353 1747 
Q 353 2609 779 3096 
Q 1206 3584 1959 3584 
z
M 2394 5119 
L 3016 5119 
L 1998 3944 
L 1519 3944 
L 2394 5119 
z
" id="DejaVuSans-f3" transform="scale(0.015625)"/>
      <path d="M 269 3500 
L 844 3500 
L 1563 769 
L 2278 3500 
L 2956 3500 
L 3675 769 
L 4391 3500 
L 4966 3500 
L 4050 0 
L 3372 0 
L 2619 2869 
L 1863 0 
L 1184 0 
L 269 3500 
z
" id="DejaVuSans-77" transform="scale(0.015625)"/>
      <path d="M 2906 2969 
L 2906 4863 
L 3481 4863 
L 3481 0 
L 2906 0 
L 2906 525 
Q 2725 213 2448 61 
Q 2172 -91 1784 -91 
Q 1150 -91 751 415 
Q 353 922 353 1747 
Q 353 2572 751 3078 
Q 1150 3584 1784 3584 
Q 2172 3584 2448 3432 
Q 2725 3281 2906 2969 
z
M 947 1747 
Q 947 1113 1208 752 
Q 1469 391 1925 391 
Q 2381 391 2643 752 
Q 2906 1113 2906 1747 
Q 2906 2381 2643 2742 
Q 2381 3103 1925 3103 
Q 1469 3103 1208 2742 
Q 947 2381 947 1747 
z
" id="DejaVuSans-64" transform="scale(0.015625)"/>
      <path d="M 2834 3397 
L 2834 2853 
Q 2591 2978 2328 3040 
Q 2066 3103 1784 3103 
Q 1356 3103 1142 2972 
Q 928 2841 928 2578 
Q 928 2378 1081 2264 
Q 1234 2150 1697 2047 
L 1894 2003 
Q 2506 1872 2764 1633 
Q 3022 1394 3022 966 
Q 3022 478 2636 193 
Q 2250 -91 1575 -91 
Q 1294 -91 989 -36 
Q 684 19 347 128 
L 347 722 
Q 666 556 975 473 
Q 1284 391 1588 391 
Q 1994 391 2212 530 
Q 2431 669 2431 922 
Q 2431 1156 2273 1281 
Q 2116 1406 1581 1522 
L 1381 1569 
Q 847 1681 609 1914 
Q 372 2147 372 2553 
Q 372 3047 722 3315 
Q 1072 3584 1716 3584 
Q 2034 3584 2315 3537 
Q 2597 3491 2834 3397 
z
" id="DejaVuSans-73" transform="scale(0.015625)"/>
      <path d="M 353 3500 
L 3084 3500 
L 3084 2975 
L 922 459 
L 3084 459 
L 3084 0 
L 275 0 
L 275 525 
L 2438 3041 
L 353 3041 
L 353 3500 
z
" id="DejaVuSans-7a" transform="scale(0.015625)"/>
      <path d="M 581 4863 
L 1159 4863 
L 1159 1991 
L 2875 3500 
L 3609 3500 
L 1753 1863 
L 3688 0 
L 2938 0 
L 1159 1709 
L 1159 0 
L 581 0 
L 581 4863 
z
" id="DejaVuSans-6b" transform="scale(0.015625)"/>
      <path d="M 2906 1791 
Q 2906 2416 2648 2759 
Q 2391 3103 1925 3103 
Q 1463 3103 1205 2759 
Q 947 2416 947 1791 
Q 947 1169 1205 825 
Q 1463 481 1925 481 
Q 2391 481 2648 825 
Q 2906 1169 2906 1791 
z
M 3481 434 
Q 3481 -459 3084 -895 
Q 2688 -1331 1869 -1331 
Q 1566 -1331 1297 -1286 
Q 1028 -1241 775 -1147 
L 775 -588 
Q 1028 -725 1275 -790 
Q 1522 -856 1778 -856 
Q 2344 -856 2625 -561 
Q 2906 -266 2906 331 
L 2906 616 
Q 2728 306 2450 153 
Q 2172 0 1784 0 
Q 1141 0 747 490 
Q 353 981 353 1791 
Q 353 2603 747 3093 
Q 1141 3584 1784 3584 
Q 2172 3584 2450 3431 
Q 2728 3278 2906 2969 
L 2906 3500 
L 3481 3500 
L 3481 434 
z
" id="DejaVuSans-67" transform="scale(0.015625)"/>
     </defs>
     <use xlink:href="#DejaVuSans-50"/>
     <use x="56.677734" xlink:href="#DejaVuSans-6f"/>
     <use x="117.859375" xlink:href="#DejaVuSans-72"/>
     <use x="156.722656" xlink:href="#DejaVuSans-f3"/>
     <use x="217.904297" xlink:href="#DejaVuSans-77"/>
     <use x="299.691406" xlink:href="#DejaVuSans-6e"/>
     <use x="363.070312" xlink:href="#DejaVuSans-61"/>
     <use x="424.349609" xlink:href="#DejaVuSans-6e"/>
     <use x="487.728516" xlink:href="#DejaVuSans-69"/>
     <use x="515.511719" xlink:href="#DejaVuSans-65"/>
     <use x="577.035156" xlink:href="#DejaVuSans-20"/>
     <use x="608.822266" xlink:href="#DejaVuSans-6d"/>
     <use x="706.234375" xlink:href="#DejaVuSans-65"/>
     <use x="767.757812" xlink:href="#DejaVuSans-74"/>
     <use x="806.966797" xlink:href="#DejaVuSans-6f"/>
     <use x="868.148438" xlink:href="#DejaVuSans-64"/>
     <use x="931.625" xlink:href="#DejaVuSans-20"/>
     <use x="963.412109" xlink:href="#DejaVuSans-73"/>
     <use x="1015.511719" xlink:href="#DejaVuSans-7a"/>
     <use x="1068.001953" xlink:href="#DejaVuSans-75"/>
     <use x="1131.380859" xlink:href="#DejaVuSans-6b"/>
     <use x="1187.541016" xlink:href="#DejaVuSans-61"/>
     <use x="1248.820312" xlink:href="#DejaVuSans-6e"/>
     <use x="1312.199219" xlink:href="#DejaVuSans-69"/>
     <use x="1339.982422" xlink:href="#DejaVuSans-61"/>
     <use x="1401.261719" xlink:href="#DejaVuSans-20"/>
     <use x="1433.048828" xlink:href="#DejaVuSans-6d"/>
     <use x="1530.460938" xlink:href="#DejaVuSans-69"/>
     <use x="1558.244141" xlink:href="#DejaVuSans-65"/>
     <use x="1619.767578" xlink:href="#DejaVuSans-6a"/>
     <use x="1647.550781" xlink:href="#DejaVuSans-73"/>
     <use x="1699.650391" xlink:href="#DejaVuSans-63"/>
     <use x="1754.630859" xlink:href="#DejaVuSans-61"/>
     <use x="1815.910156" xlink:href="#DejaVuSans-20"/>
     <use x="1847.697266" xlink:href="#DejaVuSans-7a"/>
     <use x="1900.1875" xlink:href="#DejaVuSans-65"/>
     <use x="1961.710938" xlink:href="#DejaVuSans-72"/>
     <use x="2000.574219" xlink:href="#DejaVuSans-6f"/>
     <use x="2061.755859" xlink:href="#DejaVuSans-77"/>
     <use x="2143.542969" xlink:href="#DejaVuSans-65"/>
     <use x="2205.066406" xlink:href="#DejaVuSans-67"/>
     <use x="2268.542969" xlink:href="#DejaVuSans-6f"/>
    </g>
    <!-- funkcji g(x) -->
    <g transform="translate(202.386562 35.472)scale(0.12 -0.12)">
     <defs>
      <path d="M 2375 4863 
L 2375 4384 
L 1825 4384 
Q 1516 4384 1395 4259 
Q 1275 4134 1275 3809 
L 1275 3500 
L 2222 3500 
L 2222 3053 
L 1275 3053 
L 1275 0 
L 697 0 
L 697 3053 
L 147 3053 
L 147 3500 
L 697 3500 
L 697 3744 
Q 697 4328 969 4595 
Q 1241 4863 1831 4863 
L 2375 4863 
z
" id="DejaVuSans-66" transform="scale(0.015625)"/>
      <path d="M 1984 4856 
Q 1566 4138 1362 3434 
Q 1159 2731 1159 2009 
Q 1159 1288 1364 580 
Q 1569 -128 1984 -844 
L 1484 -844 
Q 1016 -109 783 600 
Q 550 1309 550 2009 
Q 550 2706 781 3412 
Q 1013 4119 1484 4856 
L 1984 4856 
z
" id="DejaVuSans-28" transform="scale(0.015625)"/>
      <path d="M 513 4856 
L 1013 4856 
Q 1481 4119 1714 3412 
Q 1947 2706 1947 2009 
Q 1947 1309 1714 600 
Q 1481 -109 1013 -844 
L 513 -844 
Q 928 -128 1133 580 
Q 1338 1288 1338 2009 
Q 1338 2731 1133 3434 
Q 928 4138 513 4856 
z
" id="DejaVuSans-29" transform="scale(0.015625)"/>
     </defs>
     <use xlink:href="#DejaVuSans-66"/>
     <use x="35.205078" xlink:href="#DejaVuSans-75"/>
     <use x="98.583984" xlink:href="#DejaVuSans-6e"/>
     <use x="161.962891" xlink:href="#DejaVuSans-6b"/>
     <use x="219.873047" xlink:href="#DejaVuSans-63"/>
     <use x="274.853516" xlink:href="#DejaVuSans-6a"/>
     <use x="302.636719" xlink:href="#DejaVuSans-69"/>
     <use x="330.419922" xlink:href="#DejaVuSans-20"/>
     <use x="362.207031" xlink:href="#DejaVuSans-67"/>
     <use x="425.683594" xlink:href="#DejaVuSans-28"/>
     <use x="464.697266" xlink:href="#DejaVuSans-78"/>
     <use x="523.876953" xlink:href="#DejaVuSans-29"/>
    </g>
   </g>
   <g id="legend_1">
    <g id="patch_7">
     <path d="M 285.152813 78.82825 
L 407.72 78.82825 
Q 409.72 78.82825 409.72 76.82825 
L 409.72 48.472 
Q 409.72 46.472 407.72 46.472 
L 285.152813 46.472 
Q 283.152813 46.472 283.152813 48.472 
L 283.152813 76.82825 
Q 283.152813 78.82825 285.152813 78.82825 
z
" style="fill:#ffffff;opacity:0.8;stroke:#cccccc;stroke-linejoin:miter;"/>
    </g>
    <g id="line2d_13">
     <path d="M 287.152813 54.570437 
L 307.152813 54.570437 
" style="fill:none;stroke:#1f77b4;stroke-linecap:square;stroke-width:1.5;"/>
    </g>
    <g id="line2d_14">
     <g>
      <use style="fill:#1f77b4;stroke:#1f77b4;" x="297.152813" xlink:href="#mf0650fac27" y="54.570437"/>
     </g>
    </g>
    <g id="text_14">
     <!-- metoda siecznych -->
     <g transform="translate(315.152813 58.070437)scale(0.1 -0.1)">
      <defs>
       <path d="M 2059 -325 
Q 1816 -950 1584 -1140 
Q 1353 -1331 966 -1331 
L 506 -1331 
L 506 -850 
L 844 -850 
Q 1081 -850 1212 -737 
Q 1344 -625 1503 -206 
L 1606 56 
L 191 3500 
L 800 3500 
L 1894 763 
L 2988 3500 
L 3597 3500 
L 2059 -325 
z
" id="DejaVuSans-79" transform="scale(0.015625)"/>
       <path d="M 3513 2113 
L 3513 0 
L 2938 0 
L 2938 2094 
Q 2938 2591 2744 2837 
Q 2550 3084 2163 3084 
Q 1697 3084 1428 2787 
Q 1159 2491 1159 1978 
L 1159 0 
L 581 0 
L 581 4863 
L 1159 4863 
L 1159 2956 
Q 1366 3272 1645 3428 
Q 1925 3584 2291 3584 
Q 2894 3584 3203 3211 
Q 3513 2838 3513 2113 
z
" id="DejaVuSans-68" transform="scale(0.015625)"/>
      </defs>
      <use xlink:href="#DejaVuSans-6d"/>
      <use x="97.412109" xlink:href="#DejaVuSans-65"/>
      <use x="158.935547" xlink:href="#DejaVuSans-74"/>
      <use x="198.144531" xlink:href="#DejaVuSans-6f"/>
      <use x="259.326172" xlink:href="#DejaVuSans-64"/>
      <use x="322.802734" xlink:href="#DejaVuSans-61"/>
      <use x="384.082031" xlink:href="#DejaVuSans-20"/>
      <use x="415.869141" xlink:href="#DejaVuSans-73"/>
      <use x="467.96875" xlink:href="#DejaVuSans-69"/>
      <use x="495.751953" xlink:href="#DejaVuSans-65"/>
      <use x="557.275391" xlink:href="#DejaVuSans-63"/>
      <use x="612.255859" xlink:href="#DejaVuSans-7a"/>
      <use x="664.746094" xlink:href="#DejaVuSans-6e"/>
      <use x="728.125" xlink:href="#DejaVuSans-79"/>
      <use x="787.304688" xlink:href="#DejaVuSans-63"/>
      <use x="842.285156" xlink:href="#DejaVuSans-68"/>
     </g>
    </g>
    <g id="line2d_15">
     <path d="M 287.152813 69.248562 
L 307.152813 69.248562 
" style="fill:none;stroke:#ff7f0e;stroke-linecap:square;stroke-width:1.5;"/>
    </g>
    <g id="line2d_16">
     <g>
      <use style="fill:#ff7f0e;stroke:#ff7f0e;" x="297.152813" xlink:href="#m6a71b8d5e8" y="69.248562"/>
     </g>
    </g>
    <g id="text_15">
     <!-- metoda Newtona -->
     <g transform="translate(315.152813 72.748562)scale(0.1 -0.1)">
      <defs>
       <path d="M 628 4666 
L 1478 4666 
L 3547 763 
L 3547 4666 
L 4159 4666 
L 4159 0 
L 3309 0 
L 1241 3903 
L 1241 0 
L 628 0 
L 628 4666 
z
" id="DejaVuSans-4e" transform="scale(0.015625)"/>
      </defs>
      <use xlink:href="#DejaVuSans-6d"/>
      <use x="97.412109" xlink:href="#DejaVuSans-65"/>
      <use x="158.935547" xlink:href="#DejaVuSans-74"/>
      <use x="198.144531" xlink:href="#DejaVuSans-6f"/>
      <use x="259.326172" xlink:href="#DejaVuSans-64"/>
      <use x="322.802734" xlink:href="#DejaVuSans-61"/>
      <use x="384.082031" xlink:href="#DejaVuSans-20"/>
      <use x="415.869141" xlink:href="#DejaVuSans-4e"/>
      <use x="490.673828" xlink:href="#DejaVuSans-65"/>
      <use x="552.197266" xlink:href="#DejaVuSans-77"/>
      <use x="633.984375" xlink:href="#DejaVuSans-74"/>
      <use x="673.193359" xlink:href="#DejaVuSans-6f"/>
      <use x="734.375" xlink:href="#DejaVuSans-6e"/>
      <use x="797.753906" xlink:href="#DejaVuSans-61"/>
     </g>
    </g>
   </g>
  </g>
 </g>
 <defs>
  <clipPath id="p4afd1699d9">
   <rect height="266.112" width="357.12" x="57.6" y="41.472"/>
  </clipPath>
 </defs>
</svg>
